<svg xmlns="http://www.w3.org/2000/svg" version="1.1" xmlns:xlink="http://www.w3.org/1999/xlink" width="1000" height="1000"><g clip-path="url(#SvgjsClipPath1160)"><rect width="1000" height="1000" fill="#020408"></rect><g transform="matrix(5.008944543828265,0,0,5.008944543828265,150,269.58855098389984)"><svg xmlns="http://www.w3.org/2000/svg" version="1.1" xmlns:xlink="http://www.w3.org/1999/xlink" width="139.75" height="92"><svg id="Camada_1" data-name="Camada 1" xmlns="http://www.w3.org/2000/svg" viewBox="0 0 139.75 92">
  <defs>
    <style>
      .cls-1 {
        fill: #1b54da;
        border: 1px solid #1b54da;
      }
    </style>
  <clipPath id="SvgjsClipPath1160"><rect width="1000" height="1000" x="0" y="0" rx="350" ry="350"></rect></clipPath></defs>
  <rect class="cls-1" x="71.75" y="71" width="68" height="21" rx="5" ry="5"></rect>
  <path class="cls-1" d="M1.1,85.65c-2.34,2.34-.68,6.35,2.63,6.35h19.48c.99,0,1.93-.39,2.63-1.09l41.38-41.38c1.95-1.95,1.95-5.12,0-7.07L25.84,1.09c-.7-.7-1.64-1.09-2.63-1.09H3.73C.41,0-1.25,4.01,1.1,6.35l39.8,37.89c1.01.96,1.01,2.56,0,3.52L1.1,85.65Z"></path>
</svg></svg></g></g></svg>